<svg xmlns="http://www.w3.org/2000/svg" viewBox="0 0 400 250" width="400" height="250">
  <defs>
    <linearGradient id="heroBlueGrad" x1="0%" y1="0%" x2="100%" y2="100%">
      <stop offset="0%" style="stop-color:#2563EB;stop-opacity:1" />
      <stop offset="100%" style="stop-color:#3B82F6;stop-opacity:1" />
    </linearGradient>
    <linearGradient id="heroGreenGrad" x1="0%" y1="0%" x2="100%" y2="100%">
      <stop offset="0%" style="stop-color:#10B981;stop-opacity:1" />
      <stop offset="100%" style="stop-color:#059669;stop-opacity:1" />
    </linearGradient>
  </defs>
  
  <!-- Background decorations -->
  <circle cx="350" cy="50" r="40" fill="#DBEAFE" opacity="0.5">
    <animate attributeName="r" values="40;50;40" dur="3s" repeatCount="indefinite"/>
  </circle>
  <circle cx="50" cy="200" r="30" fill="#D1FAE5" opacity="0.5">
    <animate attributeName="r" values="30;40;30" dur="4s" repeatCount="indefinite"/>
  </circle>
  <circle cx="380" cy="180" r="20" fill="#FEF3C7" opacity="0.5">
    <animate attributeName="r" values="20;28;20" dur="2.5s" repeatCount="indefinite"/>
  </circle>
  
  <!-- Main Robot Character -->
  <g transform="translate(140, 30)">
    <!-- Bounce animation -->
    <animateTransform attributeName="transform" type="translate" values="140,30;140,20;140,30" dur="2s" repeatCount="indefinite"/>
    
    <!-- Body -->
    <rect x="20" y="80" width="80" height="70" rx="15" fill="url(#heroBlueGrad)"/>
    
    <!-- Screen -->
    <rect x="32" y="92" width="56" height="35" rx="6" fill="#0F172A"/>
    <rect x="38" y="98" width="44" height="6" rx="3" fill="#10B981">
      <animate attributeName="width" values="44;25;44" dur="2s" repeatCount="indefinite"/>
    </rect>
    <rect x="38" y="108" width="30" height="6" rx="3" fill="#3B82F6">
      <animate attributeName="width" values="30;44;30" dur="1.8s" repeatCount="indefinite"/>
    </rect>
    <rect x="38" y="118" width="38" height="6" rx="3" fill="#F59E0B">
      <animate attributeName="width" values="38;20;38" dur="2.2s" repeatCount="indefinite"/>
    </rect>
    
    <!-- Head -->
    <rect x="22" y="20" width="76" height="55" rx="15" fill="#FFFFFF" stroke="#E2E8F0" stroke-width="2"/>
    
    <!-- Antenna -->
    <line x1="60" y1="20" x2="60" y2="5" stroke="#64748B" stroke-width="4" stroke-linecap="round"/>
    <circle cx="60" cy="4" r="6" fill="#10B981">
      <animate attributeName="fill" values="#10B981;#F59E0B;#EF4444;#10B981" dur="3s" repeatCount="indefinite"/>
    </circle>
    
    <!-- Eyes with blink -->
    <ellipse cx="42" cy="42" rx="10" ry="12" fill="#2563EB">
      <animate attributeName="ry" values="12;2;12" dur="4s" repeatCount="indefinite"/>
    </ellipse>
    <circle cx="45" cy="39" r="4" fill="white"/>
    
    <ellipse cx="78" cy="42" rx="10" ry="12" fill="#2563EB">
      <animate attributeName="ry" values="12;2;12" dur="4s" repeatCount="indefinite"/>
    </ellipse>
    <circle cx="81" cy="39" r="4" fill="white"/>
    
    <!-- Happy mouth -->
    <path d="M42 58 Q60 72 78 58" stroke="#2563EB" stroke-width="4" fill="none" stroke-linecap="round"/>
    
    <!-- Arms waving -->
    <g transform-origin="20 100">
      <animateTransform attributeName="transform" type="rotate" values="0,20,100;-30,20,100;0,20,100" dur="1s" repeatCount="indefinite"/>
      <rect x="-5" y="88" width="22" height="15" rx="7" fill="url(#heroBlueGrad)"/>
      <circle cx="-5" cy="95" r="10" fill="#FFFFFF" stroke="#E2E8F0" stroke-width="2"/>
    </g>
    
    <g transform-origin="100 100">
      <animateTransform attributeName="transform" type="rotate" values="0,100,100;20,100,100;0,100,100" dur="1.2s" repeatCount="indefinite"/>
      <rect x="103" y="88" width="22" height="15" rx="7" fill="url(#heroBlueGrad)"/>
      <circle cx="125" cy="95" r="10" fill="#FFFFFF" stroke="#E2E8F0" stroke-width="2"/>
    </g>
    
    <!-- Legs -->
    <rect x="35" y="150" width="15" height="15" rx="5" fill="url(#heroBlueGrad)"/>
    <rect x="70" y="150" width="15" height="15" rx="5" fill="url(#heroBlueGrad)"/>
  </g>
  
  <!-- Chat bubbles floating -->
  <g>
    <animateTransform attributeName="transform" type="translate" values="0,0;0,-10;0,0" dur="2.5s" repeatCount="indefinite"/>
    <rect x="280" y="60" width="90" height="40" rx="12" fill="url(#heroGreenGrad)"/>
    <text x="325" y="85" font-family="Inter, sans-serif" font-size="14" fill="white" text-anchor="middle">Hello!</text>
    <polygon points="285,100 300,100 275,115" fill="#10B981"/>
  </g>
  
  <g>
    <animateTransform attributeName="transform" type="translate" values="0,0;0,8;0,0" dur="2s" repeatCount="indefinite"/>
    <rect x="30" y="80" width="80" height="40" rx="12" fill="url(#heroBlueGrad)"/>
    <text x="70" y="105" font-family="Inter, sans-serif" font-size="14" fill="white" text-anchor="middle">Hi! 👋</text>
    <polygon points="100,120 90,120 110,135" fill="#3B82F6"/>
  </g>
  
  <!-- Books -->
  <g transform="translate(300, 140)">
    <rect x="0" y="20" width="40" height="50" rx="3" fill="#2563EB" transform="rotate(-10 20 45)"/>
    <rect x="10" y="15" width="40" height="50" rx="3" fill="#10B981" transform="rotate(5 30 40)"/>
    <rect x="20" y="10" width="40" height="50" rx="3" fill="#F59E0B"/>
    <text x="40" y="40" font-family="Inter, sans-serif" font-size="12" fill="white" text-anchor="middle" font-weight="bold">ABC</text>
  </g>
  
  <!-- Globe -->
  <g transform="translate(20, 100)">
    <circle cx="35" cy="35" r="30" fill="#DBEAFE" stroke="#2563EB" stroke-width="2">
      <animateTransform attributeName="transform" type="rotate" values="0,35,35;360,35,35" dur="20s" repeatCount="indefinite"/>
    </circle>
    <ellipse cx="35" cy="35" rx="30" ry="12" fill="none" stroke="#2563EB" stroke-width="1.5"/>
    <ellipse cx="35" cy="35" rx="12" ry="30" fill="none" stroke="#2563EB" stroke-width="1.5"/>
    <line x1="5" y1="35" x2="65" y2="35" stroke="#2563EB" stroke-width="1.5"/>
  </g>
  
  <!-- Floating letters -->
  <text x="320" y="180" font-family="Inter, sans-serif" font-size="24" fill="#2563EB" font-weight="bold" opacity="0.7">
    A
    <animate attributeName="y" values="180;170;180" dur="2s" repeatCount="indefinite"/>
  </text>
  <text x="85" y="60" font-family="Inter, sans-serif" font-size="20" fill="#10B981" font-weight="bold" opacity="0.7">
    B
    <animate attributeName="y" values="60;50;60" dur="2.5s" repeatCount="indefinite"/>
  </text>
  <text x="370" y="120" font-family="Inter, sans-serif" font-size="22" fill="#F59E0B" font-weight="bold" opacity="0.7">
    C
    <animate attributeName="y" values="120;110;120" dur="1.8s" repeatCount="indefinite"/>
  </text>
</svg>