<svg xmlns="http://www.w3.org/2000/svg" viewBox="0 0 120 120" width="120" height="120">
  <defs>
    <linearGradient id="botBodyGrad" x1="0%" y1="0%" x2="100%" y2="100%">
      <stop offset="0%" style="stop-color:#2563EB;stop-opacity:1" />
      <stop offset="100%" style="stop-color:#3B82F6;stop-opacity:1" />
    </linearGradient>
    <linearGradient id="screenGrad" x1="0%" y1="0%" x2="0%" y2="100%">
      <stop offset="0%" style="stop-color:#10B981;stop-opacity:1" />
      <stop offset="100%" style="stop-color:#059669;stop-opacity:1" />
    </linearGradient>
  </defs>
  
  <!-- Shadow -->
  <ellipse cx="60" cy="115" rx="35" ry="5" fill="#CBD5E1" opacity="0.5">
    <animate attributeName="rx" values="35;30;35" dur="1s" repeatCount="indefinite"/>
  </ellipse>
  
  <!-- Robot Body -->
  <g>
    <!-- Bounce animation -->
    <animateTransform attributeName="transform" type="translate" values="0,0;0,-5;0,0" dur="1s" repeatCount="indefinite"/>
    
    <!-- Body -->
    <rect x="30" y="50" width="60" height="55" rx="12" fill="url(#botBodyGrad)"/>
    
    <!-- Screen on body -->
    <rect x="40" y="60" width="40" height="25" rx="5" fill="#0F172A"/>
    
    <!-- Screen bars animated -->
    <rect x="45" y="65" width="30" height="5" rx="2" fill="url(#screenGrad)">
      <animate attributeName="width" values="30;15;30" dur="1.5s" repeatCount="indefinite"/>
    </rect>
    <rect x="45" y="73" width="20" height="5" rx="2" fill="#3B82F6">
      <animate attributeName="width" values="20;30;20" dur="1.2s" repeatCount="indefinite"/>
    </rect>
    
    <!-- Head -->
    <rect x="32" y="15" width="56" height="40" rx="12" fill="#F8FAFC" stroke="#E2E8F0" stroke-width="2"/>
    
    <!-- Antenna -->
    <line x1="60" y1="15" x2="60" y2="5" stroke="#64748B" stroke-width="3" stroke-linecap="round"/>
    <circle cx="60" cy="4" r="5" fill="#10B981">
      <animate attributeName="fill" values="#10B981;#F59E0B;#10B981" dur="2s" repeatCount="indefinite"/>
    </circle>
    
    <!-- Eyes -->
    <g>
      <!-- Left eye -->
      <ellipse cx="47" cy="32" rx="8" ry="9" fill="#2563EB"/>
      <circle cx="49" cy="30" r="3" fill="white"/>
      <!-- Blink animation -->
      <ellipse cx="47" cy="32" rx="8" ry="9" fill="#2563EB">
        <animate attributeName="ry" values="9;1;9" dur="3s" repeatCount="indefinite"/>
      </ellipse>
    </g>
    <g>
      <!-- Right eye -->
      <ellipse cx="73" cy="32" rx="8" ry="9" fill="#2563EB"/>
      <circle cx="75" cy="30" r="3" fill="white"/>
      <ellipse cx="73" cy="32" rx="8" ry="9" fill="#2563EB">
        <animate attributeName="ry" values="9;1;9" dur="3s" repeatCount="indefinite"/>
      </ellipse>
    </g>
    
    <!-- Smile -->
    <path d="M47 45 Q60 55 73 45" stroke="#2563EB" stroke-width="3" fill="none" stroke-linecap="round"/>
    
    <!-- Arms -->
    <!-- Left arm waving -->
    <g transform-origin="30 65">
      <animateTransform attributeName="transform" type="rotate" values="0,30,65;-20,30,65;0,30,65" dur="0.8s" repeatCount="indefinite"/>
      <rect x="10" y="55" width="18" height="12" rx="6" fill="url(#botBodyGrad)"/>
      <circle cx="10" cy="61" r="8" fill="#F8FAFC" stroke="#E2E8F0" stroke-width="2"/>
    </g>
    
    <!-- Right arm -->
    <rect x="92" y="55" width="18" height="12" rx="6" fill="url(#botBodyGrad)"/>
    <circle cx="110" cy="61" r="8" fill="#F8FAFC" stroke="#E2E8F0" stroke-width="2"/>
    
    <!-- Legs -->
    <rect x="40" y="105" width="12" height="10" rx="4" fill="url(#botBodyGrad)"/>
    <rect x="68" y="105" width="12" height="10" rx="4" fill="url(#botBodyGrad)"/>
  </g>
</svg>